<svg version="1.1" xmlns="http://www.w3.org/2000/svg" xmlns:xlink="http://www.w3.org/1999/xlink" viewBox="0 0 436.9 451" xml:space="preserve">
	<path style="fill: #29652D;" d="M203.8,0c-5.6,0-10.4,4.7-10.4,10.4v13.9c-4.5,1.4-8.8,3.2-13,5.4l-9.8-9.8c-4-4-10.7-3.9-14.6,0l-18.7,18.7 c-4,4-3.9,10.7,0,14.6l9.8,9.8c-2.2,4.2-4,8.5-5.4,13h-13.8c-5.6,0-10.4,4.7-10.4,10.4v26.4c0,5.6,4.7,10.4,10.4,10.4h13.9 c1.4,4.5,3.2,8.8,5.3,13l-9.8,9.8c-4,4-3.9,10.7,0,14.6l18.7,18.7c4,4,10.7,3.9,14.6,0l9.8-9.8c4.2,2.2,8.5,4,13,5.4v13.8 c0,5.6,4.7,10.4,10.4,10.4h26.4c5.6,0,10.4-4.7,10.4-10.4v-14.1c4.5-1.4,8.8-3.2,13-5.3l9.8,9.8c4,4,10.7,4,14.6,0l18.7-18.7l0,0 c4-4,3.9-10.7,0-14.6l-9.8-9.8c2.2-4.2,4-8.5,5.4-13h13.9c5.6,0,10.4-4.8,10.4-10.4V86.2c0-5.6-4.7-10.4-10.4-10.4h-13.9 c-1.4-4.5-3.2-8.8-5.4-13l9.8-9.8l0,0c4-4,3.9-10.7,0-14.6L278,19.7c-4-4-10.7-4-14.6,0l-9.8,9.8c-4.2-2.2-8.5-4-13-5.4V10.2 c0-5.6-4.7-10.4-10.4-10.4h-26.4V0z M207.6,14.1h18.9v14.8c0,3.3,2.3,6.1,5.5,6.9c7,1.6,13.6,4.4,19.7,8.1c2.8,1.7,6.4,1.3,8.7-1 l10.4-10.4l13.4,13.4l-10.4,10.4c-2.3,2.3-2.7,5.9-1,8.7c3.8,6.1,6.5,12.7,8.1,19.7c0.7,3.2,3.6,5.5,6.9,5.5h14.8v18.9h-14.8 c-3.3,0-6.1,2.2-6.9,5.4c-1.6,7-4.4,13.6-8.1,19.7c-1.7,2.8-1.3,6.4,1,8.7l10.4,10.4l-13.4,13.4l-10.4-10.4c-2.3-2.3-5.9-2.7-8.7-1 c-6.1,3.8-12.7,6.5-19.7,8.1c-3.2,0.7-5.4,3.6-5.5,6.9v14.8h-18.9v-14.8c0-3.3-2.3-6.1-5.5-6.9c-7-1.6-13.6-4.4-19.7-8.1 c-2.8-1.7-6.4-1.3-8.7,1l-10.4,10.4l-13.4-13.4l10.4-10.4c2.3-2.3,2.7-5.9,1-8.7c-3.8-6.1-6.5-12.7-8.1-19.7 c-0.7-3.2-3.6-5.4-6.9-5.5h-14.8V90.1h14.7c3.3,0,6.1-2.2,6.9-5.4c1.6-7,4.4-13.6,8.1-19.7c1.7-2.8,1.3-6.4-1-8.7l-10.4-10.4 l13.4-13.4l10.4,10.4c2.3,2.3,5.9,2.7,8.7,1c6.1-3.8,12.7-6.5,19.7-8.1c3.2-0.7,5.4-3.6,5.5-6.9L207.6,14.1L207.6,14.1z M217,60.3 c-21.7,0-39.2,17.5-39.2,39.2s17.5,39.2,39.2,39.2s39.2-17.5,39.2-39.2C256.2,77.7,238.8,60.3,217,60.3z M217.6,73.2 c14.4,0,26.1,11.7,26.1,26.1l0,0c0,14.4-11.7,26.1-26.1,26.1l0,0c-14.4,0-26.1-11.7-26.1-26.1C191.6,84.9,203.2,73.3,217.6,73.2 L217.6,73.2z M337.2,155.1c-1.3-0.2-2.6-0.1-3.9,0.2l-23.1,6.2h-0.1l0,0c-3.5,0.9-3.7,4.8-4.7,8.1l-0.4-0.3c0,0.3,0.1,0.5,0.2,0.8 c-0.3,1.5-2.5,2.1-2.1,3.7l3.2,11.8c-3.4,2.2-6.5,4.6-9.5,7.3l-10.5-6.1c-4.7-2.8-11.1-1.1-13.8,3.6l-12,20.8 c-2.8,4.7-1.1,11,3.7,13.8l0,0l10.6,6.1c-0.9,3.9-1.4,7.9-1.6,11.9l-11.8,3.2c-5.2,1.4-8.5,7-7.1,12.3l6.2,23.3 c1.4,5.3,7.1,8.5,12.3,7.1l11.8-3.2c2.2,3.4,4.6,6.5,7.3,9.5l-6.1,10.5c-2.8,4.7-1.1,11,3.7,13.8l20.8,12.1c4.7,2.7,11,1,13.7-3.7 l6.1-10.6c3.9,0.9,7.9,1.4,11.9,1.6l3.2,11.8c1.4,5.3,7.1,8.5,12.3,7.1l0,0l23.2-6.2l0,0c5.2-1.4,8.5-7,7.1-12.3l-3.2-11.8 c3.4-2.2,6.6-4.6,9.6-7.3l10.5,6.1c4.7,2.8,11.1,1.1,13.8-3.6l12-20.8c2.8-4.7,1.1-11-3.7-13.8l-10.6-6.1c0.9-3.9,1.4-7.9,1.6-11.9 l11.8-3.2l0,0c5.2-1.4,8.5-7.1,7.1-12.3l-6.2-23.2c-1.4-5.3-7.1-8.5-12.3-7.1l-11.8,3.2c-2.2-3.4-4.6-6.5-7.3-9.5l6.1-10.6 c2.7-4.7,1-11-3.7-13.7l-20.8-11.9c-4.7-2.9-11.2-1.1-13.9,3.7l-6.1,10.5c-3.9-0.8-7.9-1.4-11.9-1.6l-3.2-11.8 C344.5,158.5,341,155.7,337.2,155.1z M332.9,170l3.3,12.4c0.8,3.2,3.7,5.3,7,5.2c6.4-0.2,12.9,0.6,19,2.5c3.1,1,6.5-0.4,8.1-3.2 l6.4-11.1l13.9,8l-6.4,11.1c-1.6,2.8-1.1,6.4,1.3,8.6c4.7,4.4,8.6,9.6,11.7,15.2c1.5,2.9,4.9,4.3,8,3.5l12.4-3.3l4.1,15.4l-12.4,3.3 c-3.2,0.8-5.3,3.7-5.2,7c0.2,6.4-0.6,12.9-2.5,19c-1,3.1,0.4,6.5,3.2,8.1l11.1,6.4l-8,13.8l-11.1-6.4c-2.8-1.6-6.4-1.1-8.6,1.3 c-4.4,4.7-9.6,8.6-15.2,11.7c-2.9,1.5-4.3,4.9-3.5,8l3.3,12.4l-15.4,4.1l-3.3-12.4c-0.8-3.2-3.8-5.3-7-5.2c-6.4,0.2-12.9-0.6-19-2.5 c-3.1-1-6.5,0.4-8.1,3.2l-6.4,11.1l-13.9-8l6.4-11.1c1.6-2.8,1.1-6.4-1.3-8.6c-4.7-4.4-8.6-9.6-11.6-15.2c-1.5-2.9-4.9-4.3-8-3.5 l-12.4,3.3l-4.1-15.4l12.4-3.3c3.2-0.9,5.3-3.8,5.2-7c-0.2-6.4,0.7-12.9,2.5-19c1-3.1-0.4-6.5-3.2-8.1l-11.1-6.4l8-13.8l11,6.4 c2.8,1.6,6.4,1.1,8.7-1.3c4.4-4.7,9.6-8.6,15.2-11.7c2.9-1.5,4.3-4.9,3.5-8l-3.3-12.4L332.9,170z M115,184.8 c-6.3,0-11.5,5.3-11.5,11.5v20.6c-7.3,2.1-14.3,5-20.9,8.6l-14.7-14.4c-4.4-4.4-11.9-4.4-16.3,0l-25.5,25.5 c-4.4,4.4-4.5,11.9,0,16.4l14.6,14.6c-3.6,6.6-6.5,13.6-8.7,20.9H11.5c-6.3,0-11.6,5.3-11.6,11.6v36c0,6.3,5.3,11.6,11.6,11.6h20.6 c2.1,7.3,5,14.3,8.6,20.9l-14.5,14.5c-4.4,4.4-4.4,11.9,0,16.4L51.7,425c4.4,4.4,11.9,4.4,16.3,0l14.6-14.6 c6.7,3.6,13.6,6.5,20.9,8.7v20.6c0,6.3,5.3,11.5,11.5,11.5h36c6.3,0,11.5-5.3,11.5-11.5v-20.6c7.3-2.1,14.3-5,20.9-8.6l14.5,14.5 c4.4,4.4,11.9,4.4,16.4,0l25.5-25.5c4.4-4.4,4.4-11.9,0-16.4l-14.6-14.6c3.6-6.6,6.5-13.6,8.7-20.9h20.6c6.3,0,11.6-5.3,11.6-11.6 v-36c0-6.3-5.3-11.6-11.6-11.6h-20.6c-2.1-7.3-5-14.3-8.6-20.9l14.5-14.5l0,0c4.4-4.4,4.4-11.9,0-16.3l-25.5-25.5 c-4.4-4.4-11.9-4.4-16.4,0l-14.6,14.6c-6.7-3.6-13.6-6.5-20.9-8.7v-20.6c0-6.3-5.3-11.5-11.5-11.5L115,184.8L115,184.8z  M117.5,198.9h30.9v22.6c0,3.3,2.3,6.1,5.5,6.9c9.8,2.3,19,6.1,27.6,11.4c2.8,1.7,6.4,1.3,8.7-1l16-16l21.9,21.9l-16,16 c-2.3,2.3-2.7,5.9-1,8.7c5.3,8.5,9.1,17.8,11.4,27.6c0.7,3.2,3.6,5.4,6.9,5.5h22.7v30.9h-22.7c-3.3,0-6.1,2.2-6.9,5.4 c-2.3,9.8-6.2,19.1-11.5,27.6c-1.7,2.8-1.3,6.4,1,8.7l16,16L206.1,413l-16-16c-2.3-2.3-5.9-2.7-8.7-1c-8.5,5.3-17.8,9.1-27.6,11.4 c-3.2,0.7-5.4,3.6-5.5,6.9V437h-30.9v-22.6c0-3.3-2.3-6.1-5.5-6.9c-9.8-2.3-19.1-6.1-27.6-11.4c-2.8-1.7-6.4-1.3-8.7,1l-16,16 l-21.7-22l16-16c2.3-2.3,2.7-5.9,1-8.7c-5.3-8.5-9.1-17.8-11.4-27.6c-0.7-3.2-3.6-5.4-6.9-5.5H14v-30.9h22.7c3.3,0,6.1-2.2,6.9-5.4 c2.3-9.8,6.2-19.1,11.5-27.6c1.7-2.8,1.3-6.4-1-8.7l-16-16L60,222.8l16,16c2.3,2.3,5.9,2.7,8.7,1c8.5-5.3,17.8-9.1,27.6-11.4 c3.2-0.7,5.5-3.6,5.5-6.9v-22.6H117.5z M343.2,211.6c-2.3,0.1-4.7,0.5-7,1.2c-18.8,5-29.8,24.2-24.8,42.9 c5,18.8,24.1,29.8,42.9,24.8s29.9-24.2,24.8-42.9C374.7,221.1,359.5,210.6,343.2,211.6z M345.2,225.5c11.7,0,21.1,9.5,21.1,21.1 s-9.5,21.1-21.1,21.1s-21.1-9.5-21.1-21.1S333.5,225.5,345.2,225.5z M133,247.8c-38.6,0-70.1,31.4-70.1,70.1 c0,38.6,31.4,70.1,70.1,70.1c38.6,0,70.1-31.4,70.1-70.1C203.1,279.3,171.6,247.8,133,247.8z M133,261.9c31,0,56,25,56,56 s-25,56-56,56s-56-25-56-56C77,286.9,102,261.9,133,261.9z"/>
</svg>
