<?xml version="1.0" encoding="utf-8"?>
<!-- Generator: Adobe Illustrator 22.0.1, SVG Export Plug-In . SVG Version: 6.00 Build 0)  -->
<svg version="1.1" id="Layer_1" xmlns="http://www.w3.org/2000/svg" xmlns:xlink="http://www.w3.org/1999/xlink" x="0px" y="0px"
	 viewBox="0 0 12.5 12" style="enable-background:new 0 0 12.5 12;" xml:space="preserve">
<style type="text/css">
	.st0{enable-background:new    ;}
	.st1{fill:#FAD050;}
</style>
<g class="st0">
	<path class="st1" d="M11.9,4c0.2,0,0.4,0.1,0.5,0.3s0.2,0.3,0.2,0.5s-0.1,0.4-0.2,0.5L9.8,7.7l0.6,3.4c0,0.2,0,0.4-0.1,0.5
		s-0.2,0.3-0.4,0.3s-0.4,0-0.5-0.1l-3.1-1.6l-3.1,1.6C3,12,2.8,12,2.7,12s-0.3-0.2-0.4-0.3s-0.1-0.3-0.1-0.5l0.6-3.4L0.2,5.3
		C0.1,5.2,0,5,0,4.8s0-0.4,0.2-0.5S0.4,4,0.6,4l3.4-0.5l1.5-3.1C5.7,0.2,5.8,0.1,6,0S6.4,0,6.5,0s0.3,0.2,0.4,0.4l1.5,3.1L11.9,4z
		 M8.6,7.3L11,5L7.7,4.5l-1.5-3l-1.5,3L1.6,5l2.3,2.3l-0.5,3.3L6.3,9l2.9,1.5L8.6,7.3z"/>
</g>
</svg>
