<svg version="1.1" xmlns="http://www.w3.org/2000/svg" xmlns:xlink="http://www.w3.org/1999/xlink" viewBox="0 0 224.3 223.8" xml:space="preserve">
	<path style="fill: #29652D;" d="M112.7,48.8c-39.7,0-72.2,32.5-72.2,72.2s32.5,72.2,72.2,72.2s72.2-32.5,72.2-72.2S152.4,48.8,112.7,48.8z M112.7,184.1 c-34.7,0-63.1-28.4-63.1-63.1S78,57.8,112.7,57.8s63.1,28.4,63.1,63.1S147.5,184.1,112.7,184.1z M153.3,121c0,2.7-1.8,4.5-4.5,4.5 h-36.1c-2.7,0-4.5-1.8-4.5-4.5V71.4c0-2.7,1.8-4.5,4.5-4.5s4.5,1.8,4.5,4.5v45.1h31.6C151.5,116.5,153.3,118.3,153.3,121z  M219.2,31.7L193,5.5c-6.8-6.8-18.5-6.8-25.7,0l-8.6,8.6c-1.8,1.8-1.8,4.5,0,6.3L171.4,33l-8.1,8.1l0.5,0.5 c-8.6-5.4-18.5-9.9-28.9-12.2V17.3c0-7.7-5.9-13.5-13.5-13.5h-18c-7.7,0-13.5,5.9-13.5,13.5V29c-10.4,2.7-19.8,6.8-28.9,12.2 l0.5-0.5l-8.1-8.1L65.8,20c1.8-1.8,1.8-4.5,0-6.3l-8.6-8.6c-6.8-6.8-18.5-6.8-25.7,0L5.4,31.2c-7.2,7.2-7.2,18.5,0,25.7l8.6,8.6 c1.6,1.6,4.4,1.9,6.3,0l12.6-12.6l6.8,6.8c-14,16.7-22.6,37.9-22.6,61.3c0,24.4,9.5,46.9,24.8,63.6l-9.9,9.9 c-6.8,6.8-6.8,17.6,0,24.4c6.6,6.6,17.8,6.6,24.4,0l13.1-13.1c12.6,6.3,27.1,9.9,42.4,9.9s29.3-3.6,42.4-9.9l13.1,13.1 c6.6,6.6,17.8,6.6,24.4,0c6.8-6.8,6.8-17.6,0-24.4l-9.9-9.9c16.2-16.7,25.7-39.2,25.7-63.6c0-23.5-8.6-44.6-22.6-61.3l6.8-6.8 l12.6,12.6c1.8,1.7,4.5,1.8,6.3,0l8.6-8.6C225.9,50.2,225.9,38.4,219.2,31.7z M99.2,17.3c0-2.7,1.8-4.5,4.5-4.5h18 c2.7,0,4.5,1.8,4.5,4.5v9.9c-4.5-0.5-9-0.9-13.5-0.9s-9,0.5-13.5,0.9V17.3z M18,56l-5.4-5.4C9,47,9,41.6,12.6,38l26.2-26.2 c1.8-1.8,4.1-2.7,6.3-2.7c2.3,0,4.5,0.9,6.3,2.7l5.4,5.4L18,56z M47.4,39.3l7.2,7.2c-2.7,2.3-5.4,4.5-7.7,6.8l-6.8-6.8L47.4,39.3z  M51,212.5c-3.2,3.2-8.6,3.2-11.7,0c-3.2-3.2-3.2-8.6,0-11.7l9.9-9.9c4.1,3.6,8.6,7.2,13.1,9.9L51,212.5z M186.3,212.5 c-3.2,3.2-8.6,3.2-11.7,0l-11.3-11.3c4.5-3.2,9-6.3,13.1-9.9l9.9,9.9C189.4,204,189.4,209.4,186.3,212.5z M156.5,194.5L156.5,194.5 L156.5,194.5c-13.1,7.7-28,12.2-43.7,12.2s-30.7-4.5-43.7-12.2l0,0l0,0c-25.3-14.9-41.9-42.4-41.9-73.5c0-47.4,38.3-85.7,85.7-85.7 s85.7,38.3,85.7,85.7C198.4,152.1,181.7,179.6,156.5,194.5z M178.6,53.3c-2.3-2.3-5-4.5-7.7-6.8l7.2-7.2l7.2,7.2L178.6,53.3z  M212.9,50.6l-5.4,5.4l-38.8-38.8l5.4-5.4c3.6-3.6,9.5-3.6,12.6,0L212.9,38C216.5,41.6,216.5,47,212.9,50.6z"/>
</svg>
