<svg version="1.1" xmlns="http://www.w3.org/2000/svg" xmlns:xlink="http://www.w3.org/1999/xlink" viewBox="0 0 12.5 12" xml:space="preserve">
  <path style="fill: #FAD050;" d="M5.6,0.4C5.7,0.2,5.8,0.1,6,0S6.4,0,6.5,0s0.3,0.2,0.4,0.4l1.5,3.1L11.9,4c0.2,0,0.4,0.1,0.5,0.3 s0.2,0.3,0.2,0.5s-0.1,0.4-0.2,0.5L9.8,7.7l0.6,3.4c0,0.2,0,0.4-0.1,0.5s-0.2,0.3-0.4,0.3s-0.4,0-0.5-0.1l-3.1-1.6l-3.1,1.6 C3,12,2.8,12,2.7,12s-0.3-0.2-0.4-0.3s-0.1-0.3-0.1-0.5l0.6-3.4L0.2,5.3C0.1,5.2,0,5,0,4.8s0-0.4,0.2-0.5S0.4,4,0.6,4l3.4-0.5 L5.6,0.4z"/>
</svg>
